# xmcd
#
# Track frame offsets: 
#        150
#        15348
#        41384
#        59837
#        83208
#        110298
#        130155
#        150792
#        168165
#        176550
#        200027
#        219074
#        225941
#
# Disc length: 4008 seconds
#
# Revision: 0
# Processed by: cddbd v1.5.2PL0 Copyright (c) Steve Scherf et al.
# Submitted via: ExactAudioCopy v0.99pb5
#
DISCID=940fa60d
DTITLE=คาราวาน - รอยเท้าวันเวลา 2 live concert
DYEAR=2005
DGENRE=Country
TTITLE0=อเมริกันอันตราย
TTITLE1=ฮิโรชิมา
TTITLE2=Stop The War
TTITLE3=ลุกขึ้นสู้
TTITLE4=ธงค์ วงษ์สวรรค์
TTITLE5=คืนรัง
TTITLE6=บูบู
TTITLE7=หนุ่มพเนจร
TTITLE8=เชิญ อ. ไกรศักดิ์
TTITLE9=อ. ไกรศักดิ์ พูด, เพลงสันติภาพ
TTITLE10=รอยเท้าวันเวลาคาราวาน
TTITLE11=แนะนำผู้ร่วมรายการ
TTITLE12=คาราวาน
EXTD=
EXTT0=
EXTT1=
EXTT2=
EXTT3=
EXTT4=
EXTT5=
EXTT6=
EXTT7=
EXTT8=
EXTT9=
EXTT10=
EXTT11=
EXTT12=
PLAYORDER=
